<svg width="30" height="29" viewBox="0 0 30 29" fill="none" xmlns="http://www.w3.org/2000/svg">
<path d="M29.1488 5.21094C27.514 1.8748 24.1273 0 20.6468 0C19.012 0 17.3538 0.413477 15.8538 1.28008L14.2425 2.20898C13.3519 2.72441 13.0648 3.83457 13.598 4.69551L15.5199 7.80508C15.8714 8.37148 16.4925 8.68867 17.1312 8.68867C17.4593 8.68867 17.7874 8.60371 18.0921 8.43379L19.7034 7.50488C20.0023 7.3293 20.3363 7.25 20.6644 7.25C21.3031 7.25 21.9241 7.56719 22.2757 8.13359C22.8089 8.98887 22.5159 10.1047 21.6312 10.6201L0.912435 22.5203C0.0218103 23.0357 -0.265299 24.1459 0.267904 25.0068L2.18978 28.1164C2.54134 28.6828 3.16243 29 3.80111 29C4.12923 29 4.45736 28.915 4.76204 28.7451L25.1116 17.0488C29.3128 14.6189 31.2406 9.4873 29.1488 5.21094ZM18.7366 5.94727L18.5902 6.03223L17.389 2.54883C17.9574 2.28262 18.5492 2.09004 19.1644 1.97109L20.3714 5.47148C19.7972 5.5168 19.2347 5.6584 18.7366 5.94727ZM8.5472 24.4574L5.00228 22.2768L6.80696 21.2402L10.3519 23.4209L8.5472 24.4574ZM14.846 20.8381L11.3011 18.6574L13.1058 17.6209L16.6507 19.8016L14.846 20.8381ZM21.3441 17.1055L17.7991 14.9248L19.6038 13.8883L23.1488 16.0689L21.3441 17.1055ZM22.5394 5.93027L25.2347 3.3248C25.7269 3.69297 26.1722 4.12344 26.5589 4.60488L23.8812 7.19336C23.5472 6.6666 23.0784 6.23613 22.5394 5.93027ZM27.3499 12.0361L23.8636 10.9146C24.0511 10.6145 24.2034 10.2973 24.2972 9.94609C24.3616 9.69121 24.3968 9.43066 24.4027 9.17578L27.9417 10.3143C27.8187 10.9033 27.6195 11.4811 27.3499 12.0361Z" fill="#096EBB"/>
</svg>
