<svg width="25" height="27" viewBox="0 0 25 27" fill="none" xmlns="http://www.w3.org/2000/svg">
<path d="M21.8504 4.79853L21.8497 4.79757C21.0508 3.65367 20.1374 2.81305 19.0377 2.36985C17.9174 1.91831 16.8613 1.98309 15.9977 2.16923C15.4034 2.29733 14.7554 2.52479 14.2601 2.69865C14.1149 2.7496 13.9829 2.79595 13.8692 2.83384C13.2637 3.03557 12.8312 3.1358 12.4413 3.1358C12.0705 3.1358 11.6439 3.03621 11.0295 2.82811C10.915 2.78929 10.7822 2.74201 10.6366 2.69011C10.1366 2.51201 9.48383 2.27943 8.88562 2.14753C8.02333 1.95739 6.95154 1.88309 5.82428 2.35092C4.7135 2.81191 3.81908 3.68681 3.06337 4.8589C1.58615 7.14989 1.93412 9.52571 2.41322 11.2533C2.57667 11.8427 2.78875 12.4623 2.96506 12.9775C3.03595 13.1846 3.10106 13.3748 3.1549 13.5394C3.37988 14.2271 3.44967 14.5795 3.44967 14.7662C3.44967 16.6499 3.64175 18.8882 4.11332 20.7172C4.34534 21.6171 4.68019 22.5606 5.1904 23.3247C5.69256 24.0767 6.61663 25 8.04038 25C9.84368 25 10.8038 23.6974 11.2557 22.7806C11.6727 21.9346 11.9334 20.887 12.1308 20.0938C12.1427 20.046 12.1544 19.9992 12.1658 19.9534C12.2604 19.5749 12.3449 19.2462 12.4259 18.9615C12.483 19.2097 12.5435 19.4924 12.6129 19.8159L12.6243 19.8692L12.6249 19.8722C12.8013 20.6953 13.0514 21.862 13.5648 22.8143C13.838 23.321 14.2369 23.8706 14.8349 24.2937C15.4597 24.7359 16.1944 24.963 16.989 24.963C18.3851 24.963 19.3262 24.1081 19.8659 23.3242C20.3955 22.5552 20.7309 21.6066 20.958 20.7096C21.4195 18.8873 21.5842 16.6548 21.5842 14.7662C21.5842 14.5859 21.6543 14.2305 21.8804 13.5245C21.932 13.3636 21.9928 13.1811 22.0586 12.9838C22.2358 12.4526 22.4488 11.8137 22.613 11.1977C23.0748 9.46528 23.4137 7.03985 21.8504 4.79853Z" stroke="#096EBB" stroke-width="4"/>
</svg>
