<svg width="227" height="124" viewBox="0 0 227 124" fill="none" xmlns="http://www.w3.org/2000/svg">
<path d="M135.76 101.304C113.848 91.1345 102.865 77.933 100.113 72.6035C97.4486 86.0146 95.212 113.964 107.583 118.472C119.955 122.98 144.465 121.137 154.905 119.652C149.978 117.555 139.91 106.546 135.76 101.304Z" fill="#660435"/>
<path d="M226.592 46.6987C223.237 44.7067 214.709 45.3445 210.865 45.9123C207.091 46.2908 203.614 61.1848 202.347 68.5846C211.826 62.1193 229.947 48.6907 226.592 46.6987Z" fill="#74B0EC"/>
<path d="M112.706 102.265C118.778 101.828 132.836 104.545 140.489 118.908C132.015 116.331 114.593 109.394 112.706 102.265Z" fill="#CD3367"/>
<ellipse cx="131.053" cy="96.1931" rx="6.02845" ry="5.76635" fill="white"/>
<ellipse cx="149.139" cy="99.863" rx="6.55267" ry="5.76635" fill="white"/>
<path d="M36.7424 75.2683C38.6296 78.3087 45.3046 86.7573 48.4062 90.6015L74.3547 97.2853L86.2805 80.9036L113.54 69.3709L162.423 80.9036C174.698 73.2152 207.275 57.847 208.422 45.7813C209.423 35.2533 208.899 21.0996 206.671 13.3674C159.597 2.56865 118.869 8.03795 104.497 12.7559C87.9842 -2.97054 75.7963 -0.218422 74.3547 0.961058C72.9131 2.14054 73.6994 4.76161 75.7963 11.0522C77.4738 16.0846 77.8931 20.488 77.8931 22.0606C60.9086 27.6173 39.7129 44.2086 31.2382 51.8097C19.7055 37.6559 -5.19468 27.5649 0.964839 37.0007C7.15056 44.8639 16.997 60.5466 21.1471 67.4051C24.0547 72.2104 21.7736 75.2683 20.7539 78.1514C18.2202 85.3157 15.04 98.4909 22.5886 93.8778C30.1373 89.2648 35.1698 79.5493 36.7424 75.2683Z" fill="#74B0EC"/>
<path fill-rule="evenodd" clip-rule="evenodd" d="M78.2171 2.42807C82.7911 3.52325 88.1327 4.80222 97.1107 13.3674C99.5499 13.0881 101.911 12.8087 104.225 12.5349C104.253 12.5316 104.28 12.5283 104.308 12.525C88.0245 -2.84429 75.9991 -0.246898 74.4385 0.938289L74.6242 1.44159C75.8035 1.85017 76.9824 2.13242 78.2171 2.42807ZM206.726 13.3674C151.279 7.24587 131.001 9.37262 105.887 12.3384C121.323 7.73054 161.035 2.886 206.726 13.3674Z" fill="#8ED1FE"/>
<path d="M177.97 96.455C136.033 112.601 109.648 88.5918 101.697 74.5691C110.504 114.829 140.839 121.399 154.905 119.651C96.0882 134.539 59.3671 106.197 48.2275 90.4266C59.5505 93.2573 66.4876 90.5576 68.6719 88.5918C86.8883 74.5691 83.0877 72.3412 92.1304 63.0364C99.3645 55.5926 113.929 59.9348 120.307 63.0364C148.824 76.4563 167.311 71.948 172.99 68.0164C206.33 52.3949 209.248 25.0746 206.54 13.3672C214.491 34.3357 219.907 80.3092 177.97 96.455Z" fill="#C5E5F0"/>
<path fill-rule="evenodd" clip-rule="evenodd" d="M160.934 52.1589C174.541 52.1589 185.572 41.128 185.572 27.5208C185.572 13.9136 174.541 2.88281 160.934 2.88281C150.468 2.88281 141.526 9.40885 137.955 18.6137C133.541 11.9756 125.994 7.60073 117.424 7.60073C103.817 7.60073 92.7861 18.6316 92.7861 32.2388C92.7861 45.846 103.817 56.8768 117.424 56.8768C127.89 56.8768 136.832 50.3507 140.403 41.1459C144.817 47.784 152.365 52.1589 160.934 52.1589Z" fill="white"/>
<ellipse cx="118.865" cy="31.8459" rx="14.5469" ry="15.3332" fill="black"/>
<ellipse cx="159.23" cy="27.9143" rx="14.5469" ry="15.3332" fill="black"/>
<path d="M55.4661 71.7717C54.8109 71.6407 38.0365 55.7834 41.3124 48.9684C42.1056 47.3182 63.0236 55.4337 72.241 62.0738" stroke="#B6CFE5" stroke-width="3"/>
<path d="M73.4399 42.7236C71.911 46.0873 69.6918 54.335 73.0468 60.4158C72.6099 55.9163 72.077 46.0786 73.4399 42.7236Z" fill="#265696"/>
<path d="M80.1733 41.9375C78.6444 45.3012 76.4252 53.5488 79.7802 59.6297C79.3433 55.1302 78.8104 45.2925 80.1733 41.9375Z" fill="#265696"/>
<path d="M86.9888 41.9375C85.4598 45.3012 83.2406 53.5488 86.5956 59.6297C86.1588 55.1302 85.6258 45.2925 86.9888 41.9375Z" fill="#265696"/>
<path fill-rule="evenodd" clip-rule="evenodd" d="M0 34.5588L0.262105 34.8045C1.70128 35.6577 3.05605 36.3567 4.4675 37.0849C9.86804 39.8711 16.0982 43.0853 31.0596 57.0078C36.957 50.1056 55.8811 33.2843 78.632 25.6308L77.8575 22.0166C60.879 27.5848 39.707 44.1582 31.2382 51.754C20.9459 39.1226 0.00706096 29.7269 0 34.5588Z" fill="#8ED1FE"/>
</svg>
