<svg width="132" height="74" viewBox="0 0 132 74" fill="none" xmlns="http://www.w3.org/2000/svg">
<path d="M78.9437 60.2141C66.2019 54.2195 59.8157 46.4379 58.2154 43.2964C56.6658 51.2016 55.3652 67.6764 62.5592 70.3338C69.7532 72.9912 84.0057 71.9045 90.0769 71.029C87.2115 69.793 81.357 63.3041 78.9437 60.2141Z" fill="#660435"/>
<path d="M131.762 28.0266C129.811 26.8524 124.853 27.2284 122.618 27.5631C120.423 27.7862 118.401 36.5655 117.664 40.9273C123.176 37.1163 133.713 29.2008 131.762 28.0266Z" fill="#74B0EC"/>
<path d="M65.5381 60.7802C69.069 60.5227 77.2435 62.1243 81.694 70.5909C76.7659 69.0716 66.6355 64.9826 65.5381 60.7802Z" fill="#CD3367"/>
<ellipse cx="76.2077" cy="57.2012" rx="3.50553" ry="3.39898" fill="white"/>
<ellipse cx="86.7244" cy="59.3643" rx="3.81036" ry="3.39899" fill="white"/>
<path d="M21.3656 44.867C22.463 46.6592 26.3445 51.6393 28.1481 53.9053L43.2371 57.845L50.1719 48.1888L66.023 41.3909L94.4483 48.1888C101.586 43.6568 120.53 34.5981 121.197 27.4859C121.779 21.2802 121.474 12.9372 120.179 8.37947C92.8052 2.01409 69.1221 5.23799 60.7648 8.01897C51.1626 -1.25099 44.0754 0.37125 43.2371 1.0665C42.3988 1.76174 42.8561 3.30674 44.0754 7.01472C45.0508 9.98111 45.2947 12.5767 45.2947 13.5037C35.4182 16.7791 23.093 26.5589 18.1649 31.0393C11.4587 22.6964 -3.0207 16.7482 0.561051 22.3101C4.15803 26.9451 9.88374 36.1893 12.297 40.2321C13.9878 43.0646 12.6613 44.867 12.0683 46.5665C10.595 50.7895 8.74571 58.5557 13.1352 55.8365C17.5248 53.1173 20.4512 47.3905 21.3656 44.867Z" fill="#74B0EC"/>
<path fill-rule="evenodd" clip-rule="evenodd" d="M45.4834 1.93123C48.1432 2.57678 51.2493 3.33068 56.47 8.37947C57.8884 8.21479 59.2614 8.05011 60.6067 7.88875C60.6229 7.8868 60.6392 7.88485 60.6554 7.8829C51.1864 -1.17657 44.1937 0.354464 43.2861 1.05308L43.3941 1.34975C44.0799 1.59059 44.7654 1.75696 45.4834 1.93123ZM120.211 8.37947C93.6418 2.20116 70.5495 5.05678 61.5732 7.7729C76.1772 6.02471 87.9685 4.77109 120.211 8.37947Z" fill="#8ED1FE"/>
<path d="M103.489 57.3557C79.1028 66.8729 63.7597 52.7207 59.1365 44.455C64.2576 68.1861 81.8971 72.0589 90.0766 71.0289C55.8748 79.8045 34.5216 63.0979 28.0439 53.8022C34.6283 55.4708 38.6622 53.8795 39.9323 52.7207C50.5251 44.455 48.3151 43.1418 53.5734 37.657C57.78 33.2692 66.2492 35.8288 69.9579 37.657C86.5406 45.5674 97.2909 42.91 100.593 40.5925C119.98 31.3843 121.677 15.2804 120.102 8.37939C124.726 20.7393 127.875 47.8385 103.489 57.3557Z" fill="#C5E5F0"/>
<path fill-rule="evenodd" clip-rule="evenodd" d="M93.5828 31.2456C101.495 31.2456 107.91 24.7434 107.91 16.7226C107.91 8.70185 101.495 2.19971 93.5828 2.19971C87.4967 2.19971 82.297 6.0465 80.2208 11.4723C77.654 7.55948 73.2651 4.9807 68.282 4.9807C60.3695 4.9807 53.9551 11.4828 53.9551 19.5036C53.9551 27.5244 60.3695 34.0266 68.282 34.0266C74.3681 34.0266 79.5679 30.1798 81.6441 24.754C84.2109 28.6668 88.5998 31.2456 93.5828 31.2456Z" fill="white"/>
<ellipse cx="69.1201" cy="19.2716" rx="8.459" ry="9.03821" fill="black"/>
<ellipse cx="92.5918" cy="16.9542" rx="8.459" ry="9.03821" fill="black"/>
<path d="M32.2531 42.8059C31.8721 42.7286 22.1179 33.3815 24.0228 29.3644C24.484 28.3917 36.6478 33.1754 42.0077 37.0894" stroke="#B6CFE5" stroke-width="3"/>
<path d="M42.7055 25.6831C41.8164 27.6658 40.526 32.5274 42.4769 36.1118C42.2228 33.4596 41.9129 27.6607 42.7055 25.6831Z" fill="#265696"/>
<path d="M46.6215 25.2197C45.7324 27.2025 44.442 32.064 46.3929 35.6484C46.1389 32.9962 45.829 27.1973 46.6215 25.2197Z" fill="#265696"/>
<path d="M50.5844 25.2197C49.6953 27.2025 48.4049 32.064 50.3558 35.6484C50.1018 32.9962 49.7918 27.1973 50.5844 25.2197Z" fill="#265696"/>
<path fill-rule="evenodd" clip-rule="evenodd" d="M0 20.871L0.152414 21.0159C0.989289 21.5188 1.77709 21.9308 2.59784 22.36C5.73825 24.0024 9.36105 25.897 18.0611 34.1037C21.4904 30.0352 32.4948 20.1198 45.7243 15.6084L45.274 13.478C35.401 16.7602 23.0895 26.5295 18.1649 31.0068C12.18 23.5612 0.00410711 18.0229 0 20.871Z" fill="#8ED1FE"/>
</svg>
