<svg width="24" height="25" viewBox="0 0 24 25" fill="none" xmlns="http://www.w3.org/2000/svg">
<path d="M12.2111 15.0864C12.4404 15.0864 12.6644 15.0169 12.855 14.8867C13.0456 14.7564 13.1942 14.5713 13.2819 14.3547C13.3696 14.1381 13.3926 13.8998 13.3479 13.6698C13.3031 13.4399 13.1928 13.2287 13.0307 13.0629C12.8686 12.8972 12.6621 12.7843 12.4372 12.7385C12.2124 12.6928 11.9794 12.7163 11.7676 12.806C11.5558 12.8957 11.3748 13.0476 11.2475 13.2426C11.1201 13.4375 11.0521 13.6667 11.0521 13.9011C11.0521 14.2155 11.1742 14.517 11.3916 14.7393C11.6089 14.9616 11.9037 15.0864 12.2111 15.0864ZM18.0062 15.0864C18.2354 15.0864 18.4595 15.0169 18.6501 14.8867C18.8407 14.7564 18.9892 14.5713 19.0769 14.3547C19.1647 14.1381 19.1876 13.8998 19.1429 13.6698C19.0982 13.4399 18.9878 13.2287 18.8257 13.0629C18.6636 12.8972 18.4571 12.7843 18.2323 12.7385C18.0074 12.6928 17.7744 12.7163 17.5626 12.806C17.3508 12.8957 17.1698 13.0476 17.0425 13.2426C16.9151 13.4375 16.8471 13.6667 16.8471 13.9011C16.8471 14.2155 16.9693 14.517 17.1866 14.7393C17.404 14.9616 17.6988 15.0864 18.0062 15.0864ZM12.2111 19.8278C12.4404 19.8278 12.6644 19.7583 12.855 19.6281C13.0456 19.4978 13.1942 19.3127 13.2819 19.0961C13.3696 18.8795 13.3926 18.6412 13.3479 18.4112C13.3031 18.1813 13.1928 17.9701 13.0307 17.8043C12.8686 17.6385 12.6621 17.5256 12.4372 17.4799C12.2124 17.4342 11.9794 17.4576 11.7676 17.5474C11.5558 17.6371 11.3748 17.789 11.2475 17.9839C11.1201 18.1789 11.0521 18.408 11.0521 18.6425C11.0521 18.9569 11.1742 19.2583 11.3916 19.4806C11.6089 19.7029 11.9037 19.8278 12.2111 19.8278ZM18.0062 19.8278C18.2354 19.8278 18.4595 19.7583 18.6501 19.6281C18.8407 19.4978 18.9892 19.3127 19.0769 19.0961C19.1647 18.8795 19.1876 18.6412 19.1429 18.4112C19.0982 18.1813 18.9878 17.9701 18.8257 17.8043C18.6636 17.6385 18.4571 17.5256 18.2323 17.4799C18.0074 17.4342 17.7744 17.4576 17.5626 17.5474C17.3508 17.6371 17.1698 17.789 17.0425 17.9839C16.9151 18.1789 16.8471 18.408 16.8471 18.6425C16.8471 18.9569 16.9693 19.2583 17.1866 19.4806C17.404 19.7029 17.6988 19.8278 18.0062 19.8278ZM6.41611 15.0864C6.64534 15.0864 6.86942 15.0169 7.06002 14.8867C7.25062 14.7564 7.39917 14.5713 7.48689 14.3547C7.57462 14.1381 7.59757 13.8998 7.55285 13.6698C7.50813 13.4399 7.39774 13.2287 7.23565 13.0629C7.07356 12.8972 6.86705 12.7843 6.64222 12.7385C6.4174 12.6928 6.18436 12.7163 5.97258 12.806C5.7608 12.8957 5.57979 13.0476 5.45244 13.2426C5.32508 13.4375 5.25711 13.6667 5.25711 13.9011C5.25711 14.2155 5.37922 14.517 5.59657 14.7393C5.81393 14.9616 6.10873 15.0864 6.41611 15.0864ZM20.3242 3.23299H19.1652V2.04765C19.1652 1.73328 19.043 1.43178 18.8257 1.20948C18.6083 0.987189 18.3135 0.862305 18.0062 0.862305C17.6988 0.862305 17.404 0.987189 17.1866 1.20948C16.9693 1.43178 16.8471 1.73328 16.8471 2.04765V3.23299H7.57512V2.04765C7.57512 1.73328 7.45301 1.43178 7.23565 1.20948C7.0183 0.987189 6.7235 0.862305 6.41611 0.862305C6.10873 0.862305 5.81393 0.987189 5.59657 1.20948C5.37922 1.43178 5.25711 1.73328 5.25711 2.04765V3.23299H4.09811C3.17594 3.23299 2.29155 3.60765 1.63949 4.27453C0.987421 4.94142 0.621094 5.84591 0.621094 6.78903V21.0132C0.621094 21.9563 0.987421 22.8608 1.63949 23.5277C2.29155 24.1946 3.17594 24.5692 4.09811 24.5692H20.3242C21.2463 24.5692 22.1307 24.1946 22.7828 23.5277C23.4348 22.8608 23.8012 21.9563 23.8012 21.0132V6.78903C23.8012 5.84591 23.4348 4.94142 22.7828 4.27453C22.1307 3.60765 21.2463 3.23299 20.3242 3.23299V3.23299ZM21.4832 21.0132C21.4832 21.3275 21.3611 21.629 21.1437 21.8513C20.9263 22.0736 20.6315 22.1985 20.3242 22.1985H4.09811C3.79072 22.1985 3.49592 22.0736 3.27857 21.8513C3.06121 21.629 2.9391 21.3275 2.9391 21.0132V10.3451H21.4832V21.0132ZM21.4832 7.97437H2.9391V6.78903C2.9391 6.47466 3.06121 6.17316 3.27857 5.95086C3.49592 5.72857 3.79072 5.60368 4.09811 5.60368H20.3242C20.6315 5.60368 20.9263 5.72857 21.1437 5.95086C21.3611 6.17316 21.4832 6.47466 21.4832 6.78903V7.97437ZM6.41611 19.8278C6.64534 19.8278 6.86942 19.7583 7.06002 19.6281C7.25062 19.4978 7.39917 19.3127 7.48689 19.0961C7.57462 18.8795 7.59757 18.6412 7.55285 18.4112C7.50813 18.1813 7.39774 17.9701 7.23565 17.8043C7.07356 17.6385 6.86705 17.5256 6.64222 17.4799C6.4174 17.4342 6.18436 17.4576 5.97258 17.5474C5.7608 17.6371 5.57979 17.789 5.45244 17.9839C5.32508 18.1789 5.25711 18.408 5.25711 18.6425C5.25711 18.9569 5.37922 19.2583 5.59657 19.4806C5.81393 19.7029 6.10873 19.8278 6.41611 19.8278Z" fill="#096EBB"/>
</svg>
