<svg width="23" height="29" viewBox="0 0 23 29" fill="none" xmlns="http://www.w3.org/2000/svg">
<path d="M12.8747 15.875H15.6247C15.9894 15.875 16.3391 16.0199 16.597 16.2777C16.8549 16.5356 16.9997 16.8853 16.9997 17.25C16.9997 17.6147 16.8549 17.9644 16.597 18.2223C16.3391 18.4801 15.9894 18.625 15.6247 18.625H11.4997C11.319 18.6255 11.14 18.5903 10.9729 18.5214C10.8058 18.4525 10.654 18.3513 10.5262 18.2235C10.3984 18.0957 10.2972 17.9439 10.2283 17.7768C10.1594 17.6098 10.1242 17.4307 10.1247 17.25V11.75C10.1247 11.3853 10.2696 11.0356 10.5274 10.7777C10.7853 10.5199 11.135 10.375 11.4997 10.375C11.8644 10.375 12.2141 10.5199 12.472 10.7777C12.7299 11.0356 12.8747 11.3853 12.8747 11.75V15.875ZM3.06959 10.1839C2.75542 10.0382 2.483 9.8157 2.27745 9.53698C2.0719 9.25827 1.93984 8.93228 1.89345 8.58909C1.84706 8.24589 1.88783 7.89654 2.01201 7.57326C2.13619 7.24997 2.33977 6.96316 2.60398 6.73927C2.86819 6.51539 3.18453 6.36163 3.52381 6.29219C3.86309 6.22275 4.2144 6.23987 4.54532 6.34195C4.87625 6.44403 5.17614 6.6278 5.41735 6.87631C5.65855 7.12481 5.8333 7.43005 5.92547 7.76388C6.42098 7.47248 6.93866 7.22053 7.47372 7.01038C6.87238 6.59251 6.42019 5.99354 6.18304 5.30073C5.9459 4.60792 5.93619 3.85749 6.15533 3.15878C6.37448 2.46006 6.81102 1.84959 7.40135 1.41631C7.99168 0.983034 8.70495 0.749591 9.43722 0.750001H13.5622C14.2945 0.749591 15.0078 0.983034 15.5981 1.41631C16.1884 1.84959 16.625 2.46006 16.8441 3.15878C17.0632 3.85749 17.0535 4.60792 16.8164 5.30073C16.5792 5.99354 16.1271 6.59251 15.5257 7.01038C16.062 7.22213 16.5803 7.47375 17.074 7.76388C17.1661 7.43005 17.3409 7.12481 17.5821 6.87631C17.8233 6.6278 18.1232 6.44403 18.4541 6.34195C18.785 6.23987 19.1363 6.22275 19.4756 6.29219C19.8149 6.36163 20.1312 6.51539 20.3955 6.73927C20.6597 6.96316 20.8633 7.24997 20.9874 7.57326C21.1116 7.89654 21.1524 8.24589 21.106 8.58909C21.0596 8.93228 20.9275 9.25827 20.722 9.53698C20.5164 9.8157 20.244 10.0382 19.9298 10.1839C21.2744 11.7883 22.1333 13.743 22.4056 15.8186C22.6779 17.8941 22.3523 20.0043 21.467 21.9012C20.5817 23.7982 19.1736 25.4031 17.4079 26.5276C15.6422 27.6521 13.5924 28.2494 11.499 28.2494C9.4057 28.2494 7.35582 27.6521 5.59015 26.5276C3.82448 25.4031 2.41633 23.7982 1.53107 21.9012C0.645805 20.0043 0.320196 17.8941 0.592479 15.8186C0.864762 13.743 1.72363 11.7883 3.06822 10.1839H3.06959ZM11.4997 25.5C12.5831 25.5 13.6559 25.2866 14.6569 24.872C15.6578 24.4574 16.5673 23.8497 17.3334 23.0836C18.0994 22.3175 18.7071 21.4081 19.1217 20.4071C19.5363 19.4062 19.7497 18.3334 19.7497 17.25C19.7497 16.1666 19.5363 15.0938 19.1217 14.0929C18.7071 13.0919 18.0994 12.1825 17.3334 11.4164C16.5673 10.6503 15.6578 10.0426 14.6569 9.62799C13.6559 9.21339 12.5831 9 11.4997 9C9.31168 9 7.21326 9.86919 5.66609 11.4164C4.11891 12.9635 3.24972 15.062 3.24972 17.25C3.24972 19.438 4.11891 21.5365 5.66609 23.0836C7.21326 24.6308 9.31168 25.5 11.4997 25.5ZM9.43722 3.5C9.25488 3.5 9.08001 3.57243 8.95108 3.70136C8.82215 3.8303 8.74972 4.00516 8.74972 4.1875C8.74972 4.36984 8.82215 4.5447 8.95108 4.67364C9.08001 4.80257 9.25488 4.875 9.43722 4.875H13.5622C13.7446 4.875 13.9194 4.80257 14.0484 4.67364C14.1773 4.5447 14.2497 4.36984 14.2497 4.1875C14.2497 4.00516 14.1773 3.8303 14.0484 3.70136C13.9194 3.57243 13.7446 3.5 13.5622 3.5H9.43722Z" fill="#096EBB"/>
</svg>
