<svg width="221" height="239" viewBox="0 0 221 239" fill="none" xmlns="http://www.w3.org/2000/svg">
<g clip-path="url(#clip0_6305_3663)">
<path d="M192.075 97.8257L199.812 83.8751L139.43 62.8652L141.784 78.4966L169.369 99.1703L192.075 97.8257Z" fill="#660435"/>
<path d="M173.75 116.421C184.571 115.25 191.485 101.62 193.589 94.9519L180.565 91.4947C167.64 88.7298 139.987 84.1758 132.773 88.0792C123.755 92.9584 160.224 117.884 173.75 116.421Z" fill="#CD3367"/>
<path d="M208.996 128.113L176.029 125.458C176.265 123.844 176.635 121.827 177.173 119.844C177.846 117.356 178.72 114.835 179.797 113.054C181.176 110.835 182.892 109.726 184.944 111.205C185.516 111.608 186.222 112.012 186.962 112.415C192.445 115.272 201.864 117.39 206.742 118.23C206.91 118.264 207.078 118.298 207.213 118.298L208.996 128.113Z" fill="#74B0EC"/>
<path d="M211.922 133.156C210.274 133.996 208.626 134.366 207.246 134.366C212.225 127.239 209.904 114.196 207.246 106.767C207.145 106.599 206.977 106.397 206.775 106.196C204.824 104.381 198.298 101.019 197.39 94.3294C197.323 93.8924 197.289 93.4554 197.289 93.0184C197.155 87.0348 200.384 87.2029 204.353 89.7577C210.375 93.6235 218.145 103.002 218.684 104.582C223.629 121.76 217.708 130.231 211.922 133.156Z" fill="#74B0EC"/>
<path fill-rule="evenodd" clip-rule="evenodd" d="M206.943 77.9919C206.775 79.0004 206.573 80.0761 206.338 81.2527C205.799 83.8411 205.127 86.732 204.286 89.7575C203.891 91.4898 202.877 93.6188 202.166 94.1275C201.456 94.6361 199.105 94.5981 197.356 94.3292C191.94 93.4888 186.76 92.3459 181.882 90.934C177.307 89.5894 172.968 87.9758 168.998 86.1606C163.818 83.7739 159.209 81.051 155.307 77.9919C152.212 75.5716 149.588 72.9832 147.469 70.2267C146.83 69.4199 146.258 68.5795 145.72 67.7391C145.585 68.2098 145.518 68.6804 145.484 69.2182C145.518 67.6383 145.955 66.3609 146.864 65.4533C153.995 58.3267 181.31 66.6298 194.059 71.6722L206.943 77.9919Z" fill="white"/>
<path d="M153.995 71.672L155.072 72.4451C155.509 72.7813 155.644 73.3864 155.307 73.857L154.534 74.9327C154.197 75.3697 153.592 75.5042 153.121 75.168L152.044 74.3948C151.607 74.0587 151.472 73.4536 151.809 72.983L152.583 71.9073C152.885 71.4703 153.524 71.3694 153.995 71.672Z" fill="#C4C4C4"/>
<path d="M163.65 76.5803L165.466 77.4879C165.971 77.7232 166.172 78.3283 165.937 78.8325L165.029 80.6478C164.793 81.152 164.188 81.3537 163.683 81.1184L161.867 80.2108C161.362 79.9755 161.16 79.3704 161.396 78.8661L162.304 77.0509C162.539 76.5466 163.145 76.3449 163.65 76.5803Z" fill="#C4C4C4"/>
<path d="M176.567 80.4801L179.426 81.3877C179.965 81.5558 180.267 82.1272 180.099 82.6651L179.191 85.5224C179.023 86.0603 178.451 86.3628 177.913 86.1947L175.053 85.2871C174.515 85.119 174.212 84.5476 174.38 84.0097L175.289 81.1524C175.457 80.6145 176.029 80.312 176.567 80.4801Z" fill="#C4C4C4"/>
<path d="M192.445 83.0341L195.843 83.6056C196.381 83.7064 196.751 84.2107 196.684 84.7485L196.112 88.1438C196.011 88.6816 195.506 89.0514 194.968 88.9842L191.571 88.4127C191.032 88.3118 190.662 87.8076 190.73 87.2697L191.301 83.8745C191.369 83.3031 191.907 82.9333 192.445 83.0341Z" fill="#C4C4C4"/>
<path d="M148.513 68.748C154.635 75.4712 174.314 88.5478 205.531 84.7156" stroke="#C4C4C4" stroke-width="2"/>
<path fill-rule="evenodd" clip-rule="evenodd" d="M192.748 97.3211C194.261 98.8338 189.653 108.246 186.962 112.415C186.154 113.625 185.347 114.768 184.472 115.709C182.589 117.827 180.503 119.272 178.283 119.709C177.946 119.776 177.576 119.81 177.173 119.81C169.806 119.911 157.057 108.179 147.772 95.6738C146.763 94.3292 145.821 92.9846 144.913 91.64C144.576 91.1357 144.24 90.6315 143.904 90.1272C138.69 82.0594 135.46 74.3614 136.638 70.0586C138.521 73.0504 141.011 75.8741 144.005 78.4962C146.595 80.7484 149.555 82.8662 152.818 84.8159C157.057 87.3371 161.833 89.5222 167.081 91.4046C171.219 92.8837 175.659 94.1611 180.335 95.2032C184.607 96.1445 191.234 95.8083 192.748 97.3211Z" fill="white"/>
<path d="M180.369 95.2031C179.494 97.5562 178.552 99.9093 177.577 102.128C176.265 105.053 174.885 107.775 173.439 109.893C173.136 110.364 172.833 110.801 172.497 111.204" stroke="#E1E6EA" stroke-width="0.8"/>
<path d="M181.882 90.9337C182.656 88.715 183.295 86.5972 183.867 84.7484C184.27 83.4374 184.607 82.2608 184.876 81.2523C184.909 81.1515 184.943 81.0506 184.943 80.9834" stroke="#E1E6EA" stroke-width="0.8"/>
<path d="M159.949 105.726C160.588 104.885 161.228 103.877 161.867 102.801C162.607 101.524 163.347 100.078 164.087 98.5654C165.163 96.3132 166.172 93.8928 167.114 91.4053" stroke="#E1E6EA" stroke-width="0.6"/>
<path d="M169.032 86.1608C169.57 84.6144 170.041 83.1353 170.512 81.6898C170.849 80.6814 171.118 79.7065 171.387 78.7989C171.791 77.4206 172.161 76.1769 172.43 75.1348" stroke="#E1E6EA" stroke-width="0.6"/>
<path d="M145.754 98.7665C146.427 97.8925 147.099 96.8504 147.772 95.7411C148.512 94.4637 149.252 93.0519 149.992 91.5392C150.06 91.4047 150.127 91.2702 150.194 91.1021C151.136 89.1188 152.011 87.001 152.852 84.8496" stroke="#E1E6EA" stroke-width="0.4"/>
<path d="M155.341 77.9918C155.677 76.9833 156.014 76.0085 156.316 75.0672C156.417 74.7647 156.518 74.4958 156.585 74.1932C157.292 72.0082 157.83 70.0248 158.267 68.4785" stroke="#E1E6EA" stroke-width="0.4"/>
<path d="M139.766 82.3623C145.888 89.0855 157.763 101.355 191.234 103.876" stroke="#C4C4C4" stroke-width="2"/>
<path d="M146.258 88.4805L147.335 89.2537C147.772 89.5899 147.906 90.1949 147.57 90.6656L146.796 91.7413C146.46 92.1783 145.854 92.3127 145.383 91.9766L144.307 91.2034C143.87 90.8672 143.735 90.2622 144.072 89.7916L144.845 88.7158C145.148 88.2788 145.787 88.178 146.258 88.4805Z" fill="#C4C4C4"/>
<path d="M156.351 92.3801L159.042 93.7247C159.546 93.96 159.748 94.5651 159.513 95.0693L158.167 97.7586C157.932 98.2628 157.326 98.4645 156.822 98.2292L154.13 96.8846C153.626 96.6493 153.424 96.0442 153.659 95.54L155.005 92.8507C155.24 92.3464 155.846 92.1447 156.351 92.3801Z" fill="#C4C4C4"/>
<path d="M168.831 97.2877L171.69 98.1953C172.228 98.3634 172.531 98.9348 172.363 99.4727L171.455 102.33C171.286 102.868 170.714 103.17 170.176 103.002L167.317 102.095C166.779 101.927 166.476 101.355 166.644 100.817L167.552 97.96C167.721 97.4221 168.292 97.1196 168.831 97.2877Z" fill="#C4C4C4"/>
<path d="M183.026 100.515L186.424 101.086C186.962 101.187 187.332 101.691 187.265 102.229L186.693 105.624C186.592 106.162 186.087 106.532 185.549 106.465L182.152 105.893C181.613 105.792 181.243 105.288 181.311 104.75L181.882 101.355C181.95 100.784 182.488 100.414 183.026 100.515Z" fill="#C4C4C4"/>
<path d="M51.3623 34.661C66.5 25.7528 107.472 36.4426 108.381 36.4426C98.3899 52.8135 69.763 62.226 56.6773 64.9152C49.8486 57.7887 39.2186 41.7539 51.3623 34.661Z" fill="#74B0EC"/>
<path d="M208.121 6.18897C220.567 4.87795 219.558 33.5522 216.867 48.0743C213.301 59.47 182.723 58.7641 167.888 56.9825C140.27 53.6881 122.206 47.2003 118.91 51.6376C101.081 75.6729 112.686 88.1443 109.121 97.0189C105.555 105.927 101.115 106.801 87.7598 122.836C77.0289 135.643 80.4264 163.141 83.4203 175.31C79.8546 177.966 76.457 182.47 76.1543 185.16C93.0747 179.815 129.472 176.285 117.127 187.815C104.815 199.345 80.0564 206.472 79.72 205.632C88.2644 226.272 85.0686 237.668 81.5029 238.575C74.3714 240.357 61.6221 206.539 60.142 192.286C17.353 155.242 25.5273 112.112 31.616 94.3633C33.5335 86.2955 25.3928 81.3539 21.827 89.926C18.2613 98.498 10.3897 107.104 6.68942 105.961C-7.57358 101.523 5.94936 75.6393 16.4784 71.2356C24.6191 67.8404 36.2246 74.7316 43.1879 71.2356C117.127 16.0384 191.2 7.97061 208.121 6.18897Z" fill="#74B0EC"/>
<path d="M206.742 105.86C213.537 116.718 213.469 130.366 211.922 133.122C211.855 133.257 211.754 133.357 211.687 133.458C188.543 142.366 171.118 136.114 166.677 134.332C163.112 140.551 149.387 153.191 123.014 153.93C96.6407 154.636 85.2034 168.755 83.4205 175.276C70.604 142.535 79.3838 125.727 84.6988 121.861C106.06 102.633 109.625 94.8673 108.751 93.3882C104.479 67.0334 111.711 55.1334 115.882 52.4441C120.054 48.3094 134.956 42.4938 161.295 52.4441C187.668 62.428 211.081 47.0992 217.91 39.9727C217.91 40.1071 217.943 40.2416 217.943 40.376C219.895 57.352 211.451 75.6054 208.491 80.9167C207.751 81.0176 207.044 81.1184 206.304 81.2193C199.005 82.1269 191.739 81.9924 184.843 81.2193C180.133 80.6814 175.592 79.841 171.32 78.7989C168.763 78.1939 166.341 77.4879 163.986 76.782C163.684 76.6811 163.381 76.5803 163.078 76.5131C160.757 75.7735 158.57 75.0003 156.518 74.1936C156.115 74.0591 155.745 73.891 155.341 73.7566C154.5 73.4204 153.693 73.0842 152.919 72.7481C152.65 72.6472 152.414 72.5464 152.179 72.4455C150.463 71.706 148.882 70.9664 147.436 70.2605C146.729 69.9244 146.09 69.5882 145.451 69.252C144.375 68.6806 143.399 68.1427 142.558 67.6385L142.154 68.5125C142.424 72.143 143.063 75.471 143.971 78.53C145.417 83.3035 147.57 87.4718 150.127 91.1023C150.396 91.4721 150.665 91.8419 150.934 92.2117C151.809 93.3546 152.717 94.4639 153.659 95.506C154.399 96.3128 155.139 97.1196 155.913 97.8591C157.797 99.708 159.781 101.355 161.8 102.834C165.769 105.792 169.806 108.078 173.338 109.927C175.726 111.171 177.913 112.213 179.729 113.087C181.95 114.163 183.598 115.037 184.372 115.743C184.674 116.045 184.843 116.314 184.843 116.583C184.843 117.457 181.378 120.718 181.68 121.928C188.812 127.643 201.292 126.668 206.607 125.491V105.86H206.742Z" fill="#E1F4FF"/>
<path fill-rule="evenodd" clip-rule="evenodd" d="M213.268 7.97075C182.926 14.2233 107.305 34.8634 43.2221 71.1349C43.2221 71.0676 43.1885 71.0004 43.1885 70.9332C117.026 16.0049 190.696 7.39928 207.65 6.22273C209.938 6.08827 211.788 6.72697 213.268 7.97075Z" fill="#E1F4FF"/>
<path d="M165.366 31.098C173.243 31.098 179.629 24.3253 179.629 15.9709C179.629 7.61639 173.243 0.84375 165.366 0.84375C157.488 0.84375 151.103 7.61639 151.103 15.9709C151.103 24.3253 157.488 31.098 165.366 31.098Z" fill="#FEFFFA"/>
<path d="M138.622 31.098C146.5 31.098 152.885 24.3253 152.885 15.9709C152.885 7.61639 146.5 0.84375 138.622 0.84375C130.745 0.84375 124.359 7.61639 124.359 15.9709C124.359 24.3253 130.745 31.098 138.622 31.098Z" fill="#FEFFFA"/>
<path d="M168.023 29.3164C173.43 29.3164 177.812 24.9367 177.812 19.5342C177.812 14.1316 173.43 9.75195 168.023 9.75195C162.617 9.75195 158.234 14.1316 158.234 19.5342C158.234 24.9367 162.617 29.3164 168.023 29.3164Z" fill="black"/>
<path d="M141.313 29.3164C146.72 29.3164 151.102 24.9367 151.102 19.5342C151.102 14.1316 146.72 9.75195 141.313 9.75195C135.907 9.75195 131.524 14.1316 131.524 19.5342C131.524 24.9367 135.907 29.3164 141.313 29.3164Z" fill="black"/>
<path d="M88.7695 54.2588C89.375 60.4777 93.0417 74.0249 103.033 78.2941C99.164 73.2517 90.8888 61.3853 88.7695 54.2588Z" fill="#469BD1"/>
<path d="M79.8545 56.041C80.46 62.4953 84.1267 76.5467 94.1175 80.9503C90.249 75.7063 81.9738 63.4029 79.8545 56.041Z" fill="#469BD1"/>
<path d="M70.9404 57.8223C71.5459 64.2765 75.2126 78.3279 85.2034 82.7316C81.3349 77.4875 73.0933 65.1841 70.9404 57.8223Z" fill="#469BD1"/>
<path d="M56.6777 32.8792C61.6563 32.1733 81.6043 32.0052 99.4331 37.3165L103.873 35.5348C77.164 27.5343 59.3689 30.2236 56.6777 32.8792Z" fill="#E1F4FF"/>
<path fill-rule="evenodd" clip-rule="evenodd" d="M30.8759 88.1441C32.9615 87.6062 36.1236 89.8921 32.5915 103.305C28.1511 120.214 31.7169 161.158 58.4264 187.849C58.6282 188.05 58.8973 188.252 59.2337 188.487C60.4447 189.361 62.3285 190.706 62.9004 194.101C63.2704 196.32 65.5242 202.908 67.9126 210.001C71.2765 219.884 74.9768 230.81 74.4722 232.356C74.4386 232.423 74.304 232.423 74.1022 232.322C67.778 222.137 61.1175 202.404 60.0747 192.353C17.3193 155.308 25.46 112.179 31.5487 94.4302C32.1542 91.9427 31.7842 89.724 30.8759 88.1441Z" fill="#E1F4FF"/>
</g>
<defs>
<clipPath id="clip0_6305_3663">
<rect width="220" height="238" fill="white" transform="translate(0.5 0.84375)"/>
</clipPath>
</defs>
</svg>
