<svg width="31" height="33" viewBox="0 0 31 33" fill="none" xmlns="http://www.w3.org/2000/svg">
<path d="M27.5557 5.38963L27.5564 5.39059C29.5101 8.11457 29.1088 11.0878 28.4966 13.3215C28.2796 14.1131 28.0018 14.9234 27.7636 15.618C27.6727 15.883 27.5876 16.1312 27.5139 16.3551C27.2089 17.2809 27.0846 17.8281 27.0846 18.166C27.0846 20.6273 26.8629 23.5119 26.2556 25.8443C25.9554 26.9971 25.5236 28.1657 24.8693 29.0899C24.2002 30.035 23.1162 30.9513 21.5733 30.9513C20.65 30.9513 19.8075 30.6967 19.0881 30.2016C18.3931 29.7233 17.9136 29.0905 17.5732 28.4765C16.9271 27.311 16.6034 25.8599 16.3608 24.7595C16.3502 24.7114 16.3398 24.6639 16.3294 24.6169C16.0685 23.432 15.8833 22.5909 15.6063 21.999C15.5541 21.8874 15.509 21.8092 15.4743 21.7561C15.423 21.8159 15.3468 21.921 15.2538 22.0964C14.925 22.7159 14.6747 23.6255 14.3598 24.8511C14.3455 24.9066 14.3311 24.963 14.3164 25.0202C14.0452 26.079 13.707 27.3993 13.1734 28.4521C12.5929 29.5976 11.4728 31 9.4664 31C7.90521 31 6.84225 30.0157 6.21207 29.0979C5.57925 28.1762 5.14727 27.0098 4.84029 25.8518C4.21894 23.508 3.96132 20.6149 3.96132 18.166C3.96132 17.8188 3.83706 17.2758 3.53277 16.3712C3.45517 16.1406 3.36386 15.8811 3.26584 15.6026C3.02915 14.9302 2.75338 14.1467 2.53732 13.389C1.90375 11.1671 1.48637 8.24687 3.34001 5.45104M27.5557 5.38963L3.34001 5.45104M27.5557 5.38963C26.5186 3.94532 25.3784 2.94919 24.0635 2.43379C22.7327 1.91213 21.47 1.98016 20.392 2.20614C19.6399 2.3638 18.8349 2.63839 18.1681 2.86583C17.9605 2.93665 17.7663 3.0029 17.5912 3.05962C16.7533 3.33116 16.0739 3.49448 15.4206 3.49448C14.7899 3.49448 14.1164 3.33031 13.2682 3.05093C13.0924 2.993 12.8975 2.92554 12.6894 2.85348C12.0163 2.62045 11.2041 2.33928 10.4467 2.17684C9.36847 1.94562 8.09048 1.8678 6.75679 2.4061C5.43443 2.93983 4.32017 3.97256 3.34001 5.45104M27.5557 5.38963L5.00693 6.5562L3.34001 5.45104" stroke="#096EBB" stroke-width="4"/>
</svg>
