<svg width="167" height="181" viewBox="0 0 167 181" fill="none" xmlns="http://www.w3.org/2000/svg">
<path d="M27.1769 84.3971C23.4035 87.0923 11.0722 90.2556 7.0293 90.9294L8.98375 97.1999L33.9151 95.1782C33.2412 90.4614 30.9503 81.7018 27.1769 84.3971Z" fill="#74B0EC"/>
<path d="M30.3641 89.9165C22.2782 88.2994 17.1123 69.4773 15.54 60.2685L25.2719 55.4941C34.93 51.6758 55.5938 45.3868 60.9843 50.7774C67.7225 57.5156 40.4714 91.938 30.3641 89.9165Z" fill="#660435"/>
<path d="M35.9978 95.1966C27.9003 94.0811 22.7269 81.0969 21.1523 74.7443L30.8983 71.4507C40.5703 68.8167 61.264 64.4783 66.6624 68.1969C73.4103 72.8452 46.1197 96.5911 35.9978 95.1966Z" fill="#CD3367"/>
<mask id="mask0_6305_3623" style="mask-type:alpha" maskUnits="userSpaceOnUse" x="15" y="48" width="48" height="43">
<path d="M30.3641 89.9165C22.2782 88.2994 17.1123 69.4773 15.54 60.2685L25.2719 55.4941C34.93 51.6758 55.5938 45.3868 60.9843 50.7774C67.7225 57.5156 40.4714 91.938 30.3641 89.9165Z" fill="white"/>
</mask>
<g mask="url(#mask0_6305_3623)">
<rect x="10.959" y="54.0479" width="10.1395" height="19.6654" rx="5" transform="rotate(-20.2131 10.959 54.0479)" fill="white"/>
<rect x="22.2959" y="49.7041" width="10.1395" height="19.6654" rx="5" transform="rotate(-13.8681 22.2959 49.7041)" fill="white"/>
<rect x="42.3398" y="43.0273" width="10.1395" height="19.6654" rx="5" transform="rotate(-20.2131 42.3398 43.0273)" fill="white"/>
<rect x="18.7451" y="78.8027" width="10.1395" height="19.6654" rx="5" transform="rotate(-20.2131 18.7451 78.8027)" fill="white"/>
<rect x="32.5166" y="80.6865" width="10.1395" height="19.6654" rx="5" transform="rotate(-16.0375 32.5166 80.6865)" fill="white"/>
<rect x="40.2139" y="67.3135" width="10.1395" height="19.6654" rx="5" transform="rotate(-12.9402 40.2139 67.3135)" fill="white"/>
<rect x="49.8711" y="64.7285" width="10.1395" height="19.6654" rx="5" transform="rotate(-20.2131 49.8711 64.7285)" fill="white"/>
<rect x="52.4395" y="37.4287" width="10.1395" height="19.6654" rx="5" transform="rotate(-20.2131 52.4395 37.4287)" fill="white"/>
<rect x="59.9707" y="57.6035" width="10.1395" height="19.6654" rx="5" transform="rotate(-20.2131 59.9707 57.6035)" fill="white"/>
</g>
<path d="M1.70477 79.3801C-3.14673 96.0909 5.61419 101.917 10.3309 101.917C6.55751 96.5267 8.3094 86.6444 10.3309 81.0291C11.0047 79.681 17.7429 76.9853 17.8765 70.6205C18.1164 59.1879 2.37862 77.358 1.70477 79.3801Z" fill="#74B0EC"/>
<path d="M128.249 26.4352C116.795 19.697 85.7988 27.7828 85.125 27.7828C92.6718 40.181 114.324 47.3237 124.207 49.3452C129.372 43.9546 137.413 31.8258 128.249 26.4352Z" fill="#74B0EC"/>
<path d="M9.65693 4.88629C0.251387 3.89613 1.00672 25.5889 3.02817 36.5946C5.72344 45.2194 28.8579 44.6805 40.0883 43.333C60.9767 40.8266 74.6527 35.921 77.1483 39.2901C90.6247 57.4832 81.8651 66.9166 84.5604 73.6548C87.2556 80.393 90.6247 81.0668 100.732 93.1956C108.818 102.899 106.238 123.703 103.992 132.912C106.687 134.934 109.267 138.341 109.492 140.363C96.6891 136.32 69.163 133.655 78.496 142.384C87.8199 151.105 106.537 156.496 106.796 155.861C100.328 171.493 102.753 180.118 105.449 180.792C110.839 182.14 120.497 156.535 121.62 145.753C153.964 117.723 147.79 85.0709 143.183 71.6334C141.725 65.5302 147.899 61.7956 150.595 68.2643C153.29 74.7329 159.245 81.2695 162.05 80.393C172.831 77.0239 162.614 57.4443 154.638 54.1141C148.485 51.5451 139.704 56.7705 134.423 54.1141C78.496 12.3373 22.4594 6.23405 9.65693 4.88629Z" fill="#74B0EC"/>
<path d="M2.24553 30.4922C7.41148 35.8827 25.119 47.4724 45.0641 39.9257C65.0091 32.3789 76.2844 36.7812 79.4289 39.9257C82.5734 41.9471 88.0538 50.9763 84.8194 70.9214C84.1456 72.0444 86.8409 77.9291 103.013 92.4836C107.055 95.4035 113.694 108.116 103.991 132.913C102.644 127.971 93.9834 117.28 74.0383 116.741C54.0933 116.202 43.7164 106.634 41.0212 101.917C37.6521 103.265 24.4816 107.981 6.96226 101.243C5.63294 99.9139 5.31724 89.2747 10.4826 80.7078C10.5533 80.5534 10.6257 80.4342 10.6993 80.3548C10.626 80.4721 10.5538 80.5897 10.4826 80.7078C9.4312 83.0047 8.77298 93.0797 10.6993 95.1789C12.7551 97.4191 24.1757 96.796 29.5662 92.4836C29.7908 91.5852 27.1768 89.1145 27.1769 88.4407C27.1769 85.4273 57.4987 79.681 59.5202 52.0544L59.2143 51.3806C51.3531 56.0973 30.3748 64.7222 9.35164 61.4879C7.10558 57.445 0.628358 43.4295 2.24553 30.4922Z" fill="#E1F4FF"/>
<path fill-rule="evenodd" clip-rule="evenodd" d="M5.74805 6.24709C28.7005 10.9797 85.9137 26.6088 134.384 54.0751C134.393 54.0266 134.403 53.978 134.413 53.9293C78.5687 12.3175 22.8282 5.79837 10.0036 4.92459C8.2684 4.80637 6.86791 5.29668 5.74805 6.24709Z" fill="#E1F4FF"/>
<ellipse cx="42.0008" cy="12.2987" rx="10.7811" ry="11.4549" fill="#FEFFFA"/>
<ellipse cx="62.2157" cy="12.2987" rx="10.7811" ry="11.4549" fill="#FEFFFA"/>
<circle cx="39.9794" cy="14.994" r="7.41202" fill="black"/>
<circle cx="60.1933" cy="14.994" r="7.41202" fill="black"/>
<path d="M99.9491 41.2725C99.4999 45.9892 96.7147 56.2313 89.168 59.4656C92.0879 55.6473 98.3319 46.663 99.9491 41.2725Z" fill="#469BD1"/>
<path d="M106.687 42.6201C106.238 47.5115 103.453 58.1329 95.9062 61.4871C98.8261 57.5273 105.07 48.2103 106.687 42.6201Z" fill="#469BD1"/>
<path d="M113.426 43.9678C112.976 48.8592 110.191 59.4806 102.645 62.8347C105.564 58.875 111.808 49.558 113.426 43.9678Z" fill="#469BD1"/>
<path d="M124.207 25.1015C120.433 24.5625 105.34 24.4278 91.8632 28.4699L88.4941 27.1222C108.709 21.0587 122.185 23.0803 124.207 25.1015Z" fill="#E1F4FF"/>
<path fill-rule="evenodd" clip-rule="evenodd" d="M143.738 66.9309C142.164 66.5269 139.767 68.2548 142.436 78.3982C145.805 91.2008 143.11 122.196 122.895 142.411C122.746 142.56 122.536 142.711 122.291 142.887C121.367 143.552 119.952 144.57 119.526 147.128C119.245 148.816 117.553 153.796 115.727 159.17C113.181 166.663 110.374 174.925 110.766 176.102C110.787 176.163 110.883 176.152 111.05 176.073C115.837 168.371 120.866 153.415 121.657 145.819C154 117.788 147.827 85.1363 143.219 71.6987C142.767 69.8025 143.051 68.1349 143.738 66.9309Z" fill="#E1F4FF"/>
</svg>
